<?xml version="1.0" encoding="utf-8"?>
<!-- Generator: Adobe Illustrator 17.1.0, SVG Export Plug-In . SVG Version: 6.00 Build 0)  -->
<!DOCTYPE svg PUBLIC "-//W3C//DTD SVG 1.1//EN" "http://www.w3.org/Graphics/SVG/1.1/DTD/svg11.dtd">
<svg version="1.1" id="Layer_1" xmlns="http://www.w3.org/2000/svg" xmlns:xlink="http://www.w3.org/1999/xlink" x="0px" y="0px"
	 viewBox="0 0 128.925 104.323" enable-background="new 0 0 128.925 104.323" xml:space="preserve">
<g>
	<path fill="#FFFFFF" d="M76.279,28.304c-3.525,0-3.871,4.001-3.871,4.001h7.873C80.28,32.305,79.804,28.304,76.279,28.304z"/>
	<path fill="#FFFFFF" d="M59.436,25.941c0-1.525-1.99-1.849-1.99-1.849h-5.623v3.698c0,0,3.46,0.027,5.737,0.027
		S59.436,27.465,59.436,25.941z"/>
	<path fill="#FFFFFF" d="M57.317,33.045c-2.293,0-5.493,0-5.493,0v5.061h5.969c0,0,2.293-0.26,2.293-2.292
		C60.085,33.781,59.609,33.045,57.317,33.045z"/>
	<path fill="#FFFFFF" d="M64.462,1.856H3.587l30.438,49.259l30.438,49.259L94.9,51.115l30.438-49.259H64.462z M71.023,20.545h10.381
		v2.941H71.023V20.545z M64.663,31.227c0.787,0.529,1.607,1.751,1.607,4.543c0,5.364-5.364,6.488-5.364,6.488H45.508V19.42
		c0,0,9.776,0,14.707,0c4.931,0,6.056,3.806,6.056,6.834c0,1.66-0.91,2.878-1.733,3.64C64.131,30.271,64.203,30.918,64.663,31.227z
		 M85.389,35.165H72.173c0,2.509,1.624,3.979,4.363,3.979s3.23-1.817,3.23-1.817h5.374c0,5.45-8.604,5.45-8.604,5.45
		c-8.939,0-8.882-7.613-8.882-7.613c0-10.295,7.808-9.927,7.808-9.927C86.471,25.238,85.389,35.165,85.389,35.165z"/>
</g>
</svg>
