<?xml version="1.0" encoding="utf-8"?>
<!-- Generator: Adobe Illustrator 17.1.0, SVG Export Plug-In . SVG Version: 6.00 Build 0)  -->
<!DOCTYPE svg PUBLIC "-//W3C//DTD SVG 1.1//EN" "http://www.w3.org/Graphics/SVG/1.1/DTD/svg11.dtd">
<svg version="1.1" id="Layer_1" xmlns="http://www.w3.org/2000/svg" xmlns:xlink="http://www.w3.org/1999/xlink" x="0px" y="0px"
	 viewBox="0 0 128.925 104.323" enable-background="new 0 0 128.925 104.323" xml:space="preserve">
<polygon fill="none" stroke="#FFFFFF" stroke-width="4" stroke-miterlimit="10" points="64.462,2 125.338,2 94.9,51.259 
	64.462,100.518 34.025,51.259 3.587,2 "/>
<g>
	<rect x="71.023" y="20.689" fill="#FFFFFF" width="10.381" height="2.941"/>
	<g>
		<path fill="#FFFFFF" d="M79.766,37.472c0,0-0.49,1.817-3.23,1.817c-2.74,0-4.363-1.471-4.363-3.979h13.216
			c0,0,1.081-9.927-9.927-9.927c0,0-7.808-0.368-7.808,9.927c0,0-0.057,7.613,8.882,7.613c0,0,8.604,0,8.604-5.45H79.766z
			 M76.279,28.448c3.525,0,4.001,4.001,4.001,4.001h-7.873C72.407,32.449,72.753,28.448,76.279,28.448z"/>
	</g>
	<g>
		<path fill="#FFFFFF" d="M64.663,31.371c-0.46-0.309-0.532-0.957-0.125-1.333c0.822-0.762,1.733-1.98,1.733-3.64
			c0-3.028-1.125-6.834-6.056-6.834s-14.707,0-14.707,0v22.839h15.399c0,0,5.364-1.125,5.364-6.488
			C66.271,33.122,65.45,31.901,64.663,31.371z M51.823,24.236h5.623c0,0,1.99,0.324,1.99,1.849c0,1.525,0.4,1.876-1.876,1.876
			c-2.276,0-5.737-0.027-5.737-0.027V24.236z M57.792,38.25h-5.969v-5.061c0,0,3.201,0,5.493,0c2.293,0,2.768,0.735,2.768,2.768
			C60.085,37.991,57.792,38.25,57.792,38.25z"/>
	</g>
</g>
</svg>
