<?xml version="1.0" encoding="utf-8"?>
<!-- Generator: Adobe Illustrator 17.1.0, SVG Export Plug-In . SVG Version: 6.00 Build 0)  -->
<!DOCTYPE svg PUBLIC "-//W3C//DTD SVG 1.1//EN" "http://www.w3.org/Graphics/SVG/1.1/DTD/svg11.dtd">
<svg version="1.1" id="Layer_1" xmlns="http://www.w3.org/2000/svg" xmlns:xlink="http://www.w3.org/1999/xlink" x="0px" y="0px"
	 viewBox="0 0 128.925 104.323" enable-background="new 0 0 128.925 104.323" xml:space="preserve">
<g>
	<path fill="#FFFFFF" d="M64.462,2H3.587l30.438,49.259l30.438,49.259L94.9,51.259L125.338,2H64.462z M81.38,27.14
		c-3.602,33.995-34.441,20.036-34.441,20.036c7.94,0.338,11.646-3.433,11.646-3.433c-6.022-0.507-7.317-5.459-7.317-5.459
		c0.901,0.281,3.49-0.113,3.49-0.113c-6.979-2.476-6.247-7.936-6.247-7.936c1.182,0.844,3.49,1.013,3.49,1.013
		c-6.191-5.234-2.308-10.469-2.308-10.469c7.429,8.33,16.153,8.161,16.153,8.161s-1.914-5.741,3.883-8.724
		c5.797-2.983,9.737,1.52,9.737,1.52c0.619,0.056,4.897-1.857,4.897-1.857c-0.113,1.914-3.264,4.221-3.264,4.221
		c1.351,0.169,4.381-1.182,4.381-1.182C85.48,24.044,81.38,27.14,81.38,27.14z"/>
</g>
</svg>
