<?xml version="1.0" encoding="utf-8"?>
<!-- Generator: Adobe Illustrator 17.1.0, SVG Export Plug-In . SVG Version: 6.00 Build 0)  -->
<!DOCTYPE svg PUBLIC "-//W3C//DTD SVG 1.1//EN" "http://www.w3.org/Graphics/SVG/1.1/DTD/svg11.dtd">
<svg version="1.1" id="Layer_1" xmlns="http://www.w3.org/2000/svg" xmlns:xlink="http://www.w3.org/1999/xlink" x="0px" y="0px"
	 viewBox="0 0 128.925 104.323" enable-background="new 0 0 128.925 104.323" xml:space="preserve">
<polygon fill="none" stroke="#FFFFFF" stroke-width="4" stroke-miterlimit="10" points="64.462,2 125.338,2 94.9,51.259 
	64.462,100.518 34.025,51.259 3.587,2 "/>
<path fill="#FFFFFF" d="M46.939,47.176c0,0,30.839,13.958,34.441-20.037c0,0,4.1-3.096,4.1-4.221c0,0-3.031,1.351-4.381,1.182
	c0,0,3.152-2.308,3.264-4.221c0,0-4.277,1.914-4.897,1.857c0,0-3.94-4.503-9.737-1.52s-3.883,8.724-3.883,8.724
	s-8.724,0.169-16.153-8.161c0,0-3.883,5.234,2.308,10.469c0,0-2.308-0.169-3.49-1.013c0,0-0.732,5.459,6.247,7.936
	c0,0-2.589,0.394-3.49,0.113c0,0,1.294,4.953,7.317,5.459C58.585,43.743,54.879,47.514,46.939,47.176z"/>
</svg>
